<svg height="512" viewBox="0 0 64 64" width="512" xmlns="http://www.w3.org/2000/svg"><g id="Consult-Talk"><path d="m49 28a12.671 12.671 0 0 0 -1.35-.47l-.65-4.53h-2v-8.26a6.992 6.992 0 0 1 1-12.06v6.32l3 1 3-1v-6.32a6.992 6.992 0 0 1 1 12.06v11.8l-2.75 2.06a13.076 13.076 0 0 0 -1.25-.6z" fill="#bddbff"/><path d="m49 33.76a8 8 0 0 0 -4-1.7 8.262 8.262 0 0 0 -1-.06 8 8 0 0 0 -8 8 7.871 7.871 0 0 0 .92 3.71 10.021 10.021 0 0 1 2.69 2.97 7.962 7.962 0 0 0 4.39 1.32 8.239 8.239 0 0 0 2-.25 8 8 0 0 0 3-13.99z" fill="#bddbff"/><path d="m35 21h-2a2 2 0 0 0 -1 .27v5.73c0 .24-.01.48-.03.71a1.14 1.14 0 0 0 .19.1 1.988 1.988 0 0 0 .84.19h2a1.94 1.94 0 0 0 1.3-.49 1.972 1.972 0 0 0 .7-1.51v-3a2.006 2.006 0 0 0 -2-2z" fill="#bddbff"/><path d="m39.61 46.68a9.936 9.936 0 0 0 -4.9-4.19l-7.71-3.09-1-.4a4 4 0 0 1 -8 0l-8.71 3.49a9.982 9.982 0 0 0 -6.29 9.28v9.23h38v-9.23a9.991 9.991 0 0 0 -1.39-5.09z" fill="#bddbff"/><path d="m32 21.27v.73h-1a4 4 0 0 1 -3.2-1.6l-1.8-2.4-3.36 2.69a5.976 5.976 0 0 1 -3.74 1.31h-6.9v-2a10 10 0 0 1 20 0z" fill="#bddbff"/><path d="m12 27c0 .24.01.48.03.71a1.9 1.9 0 0 1 -1.03.29h-2a2.006 2.006 0 0 1 -2-2v-3a2.006 2.006 0 0 1 2-2h2a2 2 0 0 1 1 .27z" fill="#bddbff"/><g fill="#3d9ae2"><path d="m16 25h2v2h-2z"/><path d="m26 25h2v2h-2z"/><path d="m61.142 36.01-3.907-.558a14 14 0 0 0 -.657-1.6l2.364-3.152a1 1 0 0 0 -.093-1.307l-4.243-4.243a.989.989 0 0 0 -.606-.283v-9.626a8 8 0 0 0 3-6.241 7.917 7.917 0 0 0 -4.573-7.224 1 1 0 0 0 -1.427.904v5.6l-2 .667-2-.667v-5.6a1 1 0 0 0 -1.427-.9 7.917 7.917 0 0 0 -4.573 7.22 8 8 0 0 0 3 6.241v6.759h-3a1 1 0 0 0 -.99.858l-.647 4.529 1.98.283.524-3.67h4.266l.524 3.67a1 1 0 0 0 .71.818 11.939 11.939 0 0 1 2.4.987 1 1 0 0 0 1.081-.077l2.961-2.22 3.016 3.016-2.225 2.961a1 1 0 0 0 -.077 1.081 11.939 11.939 0 0 1 .987 2.4 1 1 0 0 0 .818.71l3.67.524v4.266l-3.67.524a1 1 0 0 0 -.818.71 11.939 11.939 0 0 1 -.987 2.4 1 1 0 0 0 .077 1.081l2.22 2.961-3.016 3.016-2.959-2.228a1 1 0 0 0 -1.081-.077 11.939 11.939 0 0 1 -2.4.987 1 1 0 0 0 -.71.818l-.521 3.672h-4.133v-4.229a11.1 11.1 0 0 0 -.45-3.121 9.11 9.11 0 1 0 -6.394-7.062c-.024-.01-.047-.022-.071-.031l-8.085-3.234v-1.537a11.089 11.089 0 0 0 3.479-2.786h2.521a3 3 0 0 0 3-3v-2.184a3 3 0 0 0 2-2.816v-3a3 3 0 0 0 -2-2.816v-1.184a14 14 0 0 0 -28 0v1.184a3 3 0 0 0 -2 2.816v3a3 3 0 0 0 3 3h2c.064 0 .126-.01.189-.014a11.023 11.023 0 0 0 5.811 7.8v1.537l-8.085 3.234a10.949 10.949 0 0 0 -6.915 10.214v9.229a1 1 0 0 0 1 1h38a1 1 0 0 0 1-1v-3h5a1 1 0 0 0 .99-.858l.558-3.907a14 14 0 0 0 1.6-.657l3.152 2.364a1 1 0 0 0 1.307-.093l4.243-4.243a1 1 0 0 0 .093-1.307l-2.364-3.152a14 14 0 0 0 .657-1.6l3.907-.558a1 1 0 0 0 .857-.989v-6a1 1 0 0 0 -.858-.99zm-11-8.588c-.047-.023-.1-.038-.147-.06v-12.362h-1.995v7.93l-.01-.072a1 1 0 0 0 -.99-.858h-1v-7.26a1 1 0 0 0 -.429-.821 6 6 0 0 1 -.571-9.397v4.478a1 1 0 0 0 .684.949l3 1a1 1 0 0 0 .632 0l3-1a1 1 0 0 0 .684-.949v-4.478a6 6 0 0 1 -.571 9.4 1 1 0 0 0 -.429.818v11.293zm-13.142 12.578a7.05 7.05 0 1 1 3.333 5.941 10.916 10.916 0 0 0 -2.611-2.877 6.836 6.836 0 0 1 -.722-3.064zm-4-8h-1.214a10.9 10.9 0 0 0 1.025-3.014c.063 0 .125.014.189.014h1v2a1 1 0 0 1 -1 1zm-2-11a3.015 3.015 0 0 1 -2.4-1.2l-1.8-2.4a1 1 0 0 0 -.674-.392 1.011 1.011 0 0 0 -.751.211l-3.356 2.681a5.018 5.018 0 0 1 -3.119 1.1h-5.9v-1a9 9 0 0 1 18 0zm5 5a1 1 0 0 1 -1 1h-2v-5h2a1 1 0 0 1 1 1zm-14-19a12.013 12.013 0 0 1 12 12v1h-1a11 11 0 0 0 -22 0h-1v-1a12.013 12.013 0 0 1 12-12zm-13 20a1 1 0 0 1 -1-1v-3a1 1 0 0 1 1-1h2v5zm4 0v-4h5.9a7.024 7.024 0 0 0 4.372-1.534l2.551-2.041 1.177 1.575a5.025 5.025 0 0 0 4 2v4a8.947 8.947 0 0 1 -1.522 5h-7.478v2h5.644a8.991 8.991 0 0 1 -14.644-7zm9 11a10.966 10.966 0 0 0 3-.426v1.426a3 3 0 0 1 -6 0v-1.426a10.966 10.966 0 0 0 3 .426zm18 22h-6v-11h-2v11h-20v-11h-2v11h-6v-8.229a8.958 8.958 0 0 1 5.658-8.357l7.563-3.025a4.968 4.968 0 0 0 9.558 0l7.563 3.025a8.958 8.958 0 0 1 5.658 8.357z"/><path d="m43 26h2v2h-2z"/><path d="m43 52h2v2h-2z"/><path d="m52.192 48.192h2v2h-2z" transform="matrix(.707 -.707 .707 .707 -19.205 52.021)"/><path d="m56 39h2v2h-2z"/><path d="m52.192 29.808h2v2h-2z" transform="matrix(.707 -.707 .707 .707 -6.205 46.636)"/></g></g></svg>