<svg id="bold" enable-background="new 0 0 24 24" height="512" viewBox="0 0 24 24" width="512" xmlns="http://www.w3.org/2000/svg"><path d="m22.25 0h-2.5c-.41 0-.75.34-.75.75v8.5c0 .41.34.75.75.75h2.5c.41 0 .75-.34.75-.75v-8.5c0-.41-.34-.75-.75-.75z"/><path d="m16.25 4h-2.5c-.41 0-.75.34-.75.75v1.94c.37.55.64 1.16.81 1.81.12.48.19.98.19 1.5h2.25c.41 0 .75-.34.75-.75v-4.5c0-.41-.34-.75-.75-.75z"/><path d="m24 9.25c0 .41-.34.75-.75.75h-9.25c0-.52-.07-1.02-.19-1.5h9.44c.41 0 .75.34.75.75z"/><path d="m8 14c-2.206 0-4-1.794-4-4s1.794-4 4-4 4 1.794 4 4-1.794 4-4 4z"/><path d="m16 24h-16v-3.25c0-2.623 2.127-4.75 4.75-4.75h6.5c2.623 0 4.75 2.127 4.75 4.75z"/></svg>