<?xml version="1.0" encoding="UTF-8"?>
<svg xmlns="http://www.w3.org/2000/svg" xmlns:xlink="http://www.w3.org/1999/xlink" width="12pt" height="12pt" viewBox="0 0 12 12" version="1.1">
<g id="surface1">
<path style=" stroke:none;fill-rule:nonzero;fill:rgb(0%,0%,0%);fill-opacity:1;" d="M 10.683594 0.453125 L 10.273438 0.453125 C 10.285156 0.421875 10.292969 0.386719 10.292969 0.347656 C 10.292969 0.15625 10.136719 0 9.945312 0 C 9.75 0 9.59375 0.15625 9.59375 0.347656 C 9.59375 0.386719 9.605469 0.421875 9.617188 0.453125 L 8.277344 0.453125 C 8.289062 0.421875 8.300781 0.386719 8.300781 0.347656 C 8.300781 0.15625 8.144531 0 7.949219 0 C 7.757812 0 7.601562 0.15625 7.601562 0.347656 C 7.601562 0.386719 7.609375 0.421875 7.621094 0.453125 L 6.28125 0.453125 C 6.292969 0.421875 6.304688 0.386719 6.304688 0.347656 C 6.304688 0.15625 6.148438 0 5.953125 0 C 5.761719 0 5.605469 0.15625 5.605469 0.347656 C 5.605469 0.386719 5.617188 0.421875 5.625 0.453125 L 4.289062 0.453125 C 4.296875 0.421875 4.308594 0.386719 4.308594 0.347656 C 4.308594 0.15625 4.152344 0 3.960938 0 C 3.765625 0 3.609375 0.15625 3.609375 0.347656 C 3.609375 0.386719 3.621094 0.421875 3.632812 0.453125 L 2.292969 0.453125 C 2.304688 0.421875 2.3125 0.386719 2.3125 0.347656 C 2.3125 0.15625 2.15625 0 1.964844 0 C 1.773438 0 1.613281 0.15625 1.613281 0.347656 C 1.613281 0.386719 1.625 0.421875 1.636719 0.453125 L 1.226562 0.453125 C 0.675781 0.453125 0.226562 0.902344 0.226562 1.453125 L 0.226562 10.910156 C 0.226562 11.460938 0.675781 11.910156 1.226562 11.910156 L 9.550781 11.910156 L 11.683594 9.78125 L 11.683594 1.453125 C 11.683594 0.902344 11.234375 0.453125 10.683594 0.453125 Z M 8.6875 1.910156 L 8.820312 2.347656 C 8.835938 2.402344 8.855469 2.46875 8.863281 2.515625 L 8.871094 2.515625 C 8.882812 2.46875 8.898438 2.398438 8.910156 2.347656 L 9.019531 1.910156 L 9.316406 1.910156 L 9.109375 2.496094 C 8.980469 2.851562 8.894531 2.992188 8.796875 3.082031 C 8.699219 3.164062 8.597656 3.195312 8.527344 3.203125 L 8.46875 2.96875 C 8.503906 2.964844 8.546875 2.949219 8.589844 2.921875 C 8.632812 2.898438 8.675781 2.855469 8.703125 2.808594 C 8.714844 2.796875 8.71875 2.785156 8.71875 2.769531 C 8.71875 2.761719 8.714844 2.746094 8.707031 2.726562 L 8.378906 1.910156 Z M 7.941406 1.910156 L 7.953125 2.074219 L 7.957031 2.074219 C 8.003906 1.945312 8.113281 1.890625 8.199219 1.890625 C 8.222656 1.890625 8.238281 1.890625 8.257812 1.894531 L 8.257812 2.15625 C 8.238281 2.152344 8.214844 2.148438 8.183594 2.148438 C 8.082031 2.148438 8.011719 2.203125 7.992188 2.289062 C 7.988281 2.308594 7.988281 2.328125 7.988281 2.351562 L 7.988281 2.800781 L 7.710938 2.800781 L 7.710938 2.203125 C 7.710938 2.074219 7.707031 1.988281 7.703125 1.910156 Z M 7.007812 2.082031 C 6.917969 2.082031 6.820312 2.113281 6.761719 2.148438 L 6.710938 1.96875 C 6.773438 1.9375 6.894531 1.890625 7.054688 1.890625 C 7.351562 1.890625 7.445312 2.066406 7.445312 2.277344 L 7.445312 2.585938 C 7.445312 2.671875 7.449219 2.753906 7.460938 2.800781 L 7.210938 2.800781 L 7.195312 2.714844 L 7.1875 2.714844 C 7.132812 2.785156 7.039062 2.824219 6.933594 2.824219 C 6.753906 2.824219 6.648438 2.691406 6.648438 2.550781 C 6.648438 2.316406 6.855469 2.207031 7.167969 2.210938 L 7.167969 2.195312 C 7.167969 2.148438 7.144531 2.082031 7.007812 2.082031 Z M 5.597656 1.910156 L 5.875 1.910156 L 5.875 2.390625 C 5.875 2.519531 5.917969 2.597656 6.015625 2.597656 C 6.089844 2.597656 6.132812 2.546875 6.152344 2.5 C 6.160156 2.484375 6.160156 2.464844 6.160156 2.441406 L 6.160156 1.910156 L 6.441406 1.910156 L 6.441406 2.515625 C 6.441406 2.632812 6.441406 2.726562 6.445312 2.800781 L 6.207031 2.800781 L 6.195312 2.675781 L 6.1875 2.675781 C 6.152344 2.730469 6.070312 2.820312 5.910156 2.820312 C 5.730469 2.820312 5.597656 2.710938 5.597656 2.433594 Z M 4.722656 1.910156 L 4.734375 2.035156 L 4.742188 2.035156 C 4.777344 1.976562 4.867188 1.890625 5.015625 1.890625 C 5.195312 1.890625 5.332031 2.011719 5.332031 2.273438 L 5.332031 2.800781 L 5.058594 2.800781 L 5.058594 2.308594 C 5.058594 2.195312 5.015625 2.117188 4.917969 2.117188 C 4.839844 2.117188 4.792969 2.167969 4.777344 2.21875 C 4.769531 2.234375 4.765625 2.261719 4.765625 2.289062 L 4.765625 2.800781 L 4.488281 2.800781 L 4.488281 2.195312 C 4.488281 2.085938 4.484375 1.992188 4.480469 1.910156 Z M 3.785156 2.082031 C 3.695312 2.082031 3.597656 2.113281 3.539062 2.148438 L 3.488281 1.96875 C 3.550781 1.9375 3.671875 1.890625 3.835938 1.890625 C 4.132812 1.890625 4.226562 2.066406 4.226562 2.277344 L 4.226562 2.585938 C 4.226562 2.671875 4.230469 2.753906 4.238281 2.800781 L 3.988281 2.800781 L 3.972656 2.714844 L 3.96875 2.714844 C 3.910156 2.785156 3.816406 2.824219 3.710938 2.824219 C 3.53125 2.824219 3.425781 2.691406 3.425781 2.550781 C 3.425781 2.316406 3.632812 2.207031 3.949219 2.210938 L 3.949219 2.195312 C 3.949219 2.148438 3.921875 2.082031 3.785156 2.082031 Z M 2.617188 2.570312 C 2.65625 2.582031 2.707031 2.589844 2.761719 2.589844 C 2.875 2.589844 2.949219 2.539062 2.949219 2.347656 L 2.949219 1.574219 L 3.226562 1.574219 L 3.226562 2.351562 C 3.226562 2.699219 3.058594 2.820312 2.789062 2.820312 C 2.726562 2.820312 2.640625 2.8125 2.585938 2.792969 Z M 11.136719 9.554688 L 11.023438 9.667969 L 10.167969 9.667969 C 9.765625 9.667969 9.441406 9.996094 9.441406 10.394531 L 9.441406 11.25 L 9.328125 11.363281 L 1.226562 11.363281 C 0.976562 11.363281 0.773438 11.160156 0.773438 10.910156 L 0.773438 4 L 11.136719 4 Z M 11.136719 9.554688 "/>
<path style=" stroke:none;fill-rule:nonzero;fill:rgb(0%,0%,0%);fill-opacity:1;" d="M 3.699219 2.523438 C 3.699219 2.59375 3.746094 2.628906 3.808594 2.628906 C 3.875 2.628906 3.933594 2.582031 3.953125 2.527344 C 3.957031 2.511719 3.957031 2.496094 3.957031 2.480469 L 3.957031 2.382812 C 3.8125 2.378906 3.699219 2.414062 3.699219 2.523438 Z M 3.699219 2.523438 "/>
<path style=" stroke:none;fill-rule:nonzero;fill:rgb(0%,0%,0%);fill-opacity:1;" d="M 6.921875 2.523438 C 6.921875 2.59375 6.96875 2.628906 7.03125 2.628906 C 7.097656 2.628906 7.15625 2.582031 7.171875 2.527344 C 7.175781 2.511719 7.179688 2.496094 7.179688 2.480469 L 7.179688 2.382812 C 7.035156 2.378906 6.921875 2.414062 6.921875 2.523438 Z M 6.921875 2.523438 "/>
<path style=" stroke:none;fill-rule:nonzero;fill:rgb(0%,0%,0%);fill-opacity:1;" d="M 5.132812 10.097656 C 5.457031 10.097656 5.757812 10.015625 6.03125 9.859375 C 6.191406 9.765625 6.328125 9.640625 6.453125 9.503906 C 6.417969 9.503906 6.382812 9.511719 6.34375 9.511719 C 6.042969 9.511719 5.765625 9.460938 5.515625 9.371094 C 5.394531 9.414062 5.269531 9.441406 5.132812 9.441406 C 4.539062 9.441406 3.914062 9.03125 3.546875 8.394531 C 3.292969 7.957031 3.191406 7.464844 3.261719 7.019531 C 3.324219 6.597656 3.535156 6.265625 3.847656 6.082031 C 4.019531 5.984375 4.210938 5.933594 4.417969 5.933594 C 5.015625 5.933594 5.636719 6.34375 6.003906 6.980469 C 6.257812 7.417969 6.359375 7.910156 6.292969 8.355469 C 6.289062 8.378906 6.28125 8.394531 6.277344 8.414062 C 6.300781 8.414062 6.320312 8.417969 6.347656 8.417969 C 6.539062 8.417969 6.742188 8.382812 6.945312 8.320312 C 7 7.761719 6.875 7.175781 6.570312 6.652344 C 6.089844 5.816406 5.246094 5.277344 4.417969 5.277344 C 4.09375 5.277344 3.792969 5.359375 3.523438 5.515625 C 3.03125 5.800781 2.707031 6.296875 2.613281 6.917969 C 2.523438 7.515625 2.652344 8.15625 2.980469 8.722656 C 3.464844 9.558594 4.308594 10.097656 5.132812 10.097656 Z M 5.132812 10.097656 "/>
<path style=" stroke:none;fill-rule:nonzero;fill:rgb(0%,0%,0%);fill-opacity:1;" d="M 6.484375 6.148438 C 6.839844 5.96875 7.21875 5.863281 7.570312 5.863281 C 8.03125 5.863281 8.394531 6.03125 8.5625 6.324219 C 8.710938 6.582031 8.703125 6.921875 8.535156 7.277344 C 8.351562 7.671875 8.003906 8.03125 7.558594 8.289062 C 7.167969 8.515625 6.738281 8.636719 6.34375 8.636719 C 5.882812 8.636719 5.519531 8.472656 5.351562 8.179688 C 5.203125 7.921875 5.210938 7.582031 5.378906 7.226562 C 5.441406 7.085938 5.535156 6.957031 5.636719 6.828125 C 5.496094 6.652344 5.332031 6.5 5.152344 6.390625 C 5.007812 6.566406 4.878906 6.753906 4.785156 6.949219 C 4.527344 7.503906 4.527344 8.058594 4.785156 8.507812 C 5.074219 9.007812 5.640625 9.292969 6.34375 9.292969 C 6.859375 9.292969 7.390625 9.140625 7.882812 8.859375 C 8.445312 8.53125 8.886719 8.070312 9.128906 7.554688 C 9.386719 7 9.386719 6.445312 9.128906 6 C 8.839844 5.5 8.273438 5.210938 7.570312 5.210938 C 7.054688 5.210938 6.523438 5.363281 6.03125 5.648438 C 6.019531 5.652344 6.011719 5.660156 6 5.667969 C 6.175781 5.804688 6.339844 5.96875 6.484375 6.148438 Z M 6.484375 6.148438 "/>
</g>
</svg>
