<?xml version="1.0" encoding="iso-8859-1"?>
<!-- Generator: Adobe Illustrator 16.0.0, SVG Export Plug-In . SVG Version: 6.00 Build 0)  -->
<!DOCTYPE svg PUBLIC "-//W3C//DTD SVG 1.1//EN" "http://www.w3.org/Graphics/SVG/1.1/DTD/svg11.dtd">
<svg version="1.1" id="Capa_1" xmlns="http://www.w3.org/2000/svg" xmlns:xlink="http://www.w3.org/1999/xlink" x="0px" y="0px"
	 width="32.75px" height="32.75px" viewBox="0 0 32.75 32.75" style="enable-background:new 0 0 32.75 32.75;" xml:space="preserve"
	>
<g>
	<g>
		<path d="M29.375,1.25h-1.123c0.029-0.093,0.059-0.186,0.059-0.289c0-0.53-0.432-0.961-0.963-0.961s-0.961,0.431-0.961,0.961
			c0,0.103,0.028,0.196,0.059,0.289h-3.68c0.029-0.093,0.059-0.186,0.059-0.289C22.823,0.431,22.393,0,21.861,0
			C21.331,0,20.9,0.431,20.9,0.961c0,0.103,0.029,0.196,0.059,0.289h-3.682c0.029-0.093,0.059-0.186,0.059-0.289
			c0-0.53-0.43-0.961-0.961-0.961c-0.531,0-0.961,0.431-0.961,0.961c0,0.103,0.028,0.196,0.058,0.289h-3.681
			c0.029-0.093,0.059-0.186,0.059-0.289C11.85,0.431,11.419,0,10.889,0c-0.531,0-0.962,0.431-0.962,0.961
			c0,0.103,0.028,0.196,0.058,0.289h-3.68c0.03-0.093,0.059-0.186,0.059-0.289C6.364,0.43,5.934,0,5.403,0
			C4.872,0,4.441,0.431,4.441,0.961c0,0.103,0.028,0.196,0.058,0.289H3.375c-1.518,0-2.75,1.233-2.75,2.75v26
			c0,1.518,1.232,2.75,2.75,2.75H26.27l5.855-5.855V4C32.125,2.483,30.893,1.25,29.375,1.25z M23.891,5.258l0.365,1.201
			c0.041,0.145,0.092,0.325,0.121,0.456h0.016c0.034-0.13,0.074-0.315,0.109-0.456l0.3-1.201h0.815l-0.57,1.611
			c-0.35,0.971-0.586,1.361-0.859,1.607c-0.267,0.23-0.547,0.31-0.735,0.335l-0.16-0.646c0.095-0.015,0.215-0.06,0.33-0.13
			c0.114-0.061,0.239-0.181,0.313-0.306c0.025-0.035,0.041-0.075,0.041-0.11c0-0.025-0.006-0.065-0.035-0.125l-0.896-2.237
			L23.891,5.258L23.891,5.258z M21.842,5.258l0.024,0.45h0.021c0.125-0.355,0.426-0.505,0.66-0.505c0.07,0,0.105,0,0.16,0.01v0.716
			c-0.055-0.01-0.12-0.02-0.205-0.02c-0.279,0-0.471,0.15-0.521,0.385c-0.01,0.05-0.015,0.11-0.015,0.17v1.241h-0.761V6.063
			c0-0.36-0.01-0.596-0.02-0.806L21.842,5.258L21.842,5.258z M19.271,5.724c-0.25,0-0.517,0.085-0.676,0.185l-0.142-0.49
			c0.171-0.095,0.506-0.215,0.95-0.215c0.816,0,1.076,0.48,1.076,1.056v0.851c0,0.235,0.011,0.46,0.035,0.596H19.83l-0.045-0.245
			H19.77c-0.16,0.195-0.41,0.3-0.701,0.3c-0.494,0-0.791-0.36-0.791-0.751c0-0.636,0.572-0.941,1.438-0.936V6.04
			C19.717,5.909,19.646,5.724,19.271,5.724z M15.391,5.258h0.766v1.316c0,0.355,0.115,0.571,0.381,0.571
			c0.21,0,0.33-0.145,0.38-0.265c0.021-0.045,0.023-0.105,0.023-0.165V5.258h0.768V6.92c0,0.32,0.01,0.581,0.02,0.786h-0.66
			l-0.034-0.345H17.02c-0.097,0.15-0.326,0.4-0.767,0.4c-0.496,0-0.861-0.311-0.861-1.066L15.391,5.258L15.391,5.258z M12.986,5.258
			l0.035,0.335h0.015c0.101-0.155,0.351-0.391,0.756-0.391c0.5,0,0.876,0.33,0.876,1.051v1.452h-0.762V6.349
			c0-0.315-0.109-0.53-0.385-0.53c-0.21,0-0.336,0.145-0.385,0.285c-0.021,0.045-0.031,0.12-0.031,0.19v1.412h-0.76V6.039
			c0-0.306-0.01-0.565-0.021-0.781H12.986z M10.411,5.724c-0.251,0-0.516,0.085-0.676,0.185l-0.14-0.49
			c0.17-0.095,0.505-0.215,0.95-0.215c0.815,0,1.076,0.48,1.076,1.056v0.851c0,0.235,0.011,0.46,0.035,0.596H10.97l-0.045-0.245
			H10.91c-0.16,0.195-0.411,0.3-0.701,0.3c-0.496,0-0.791-0.36-0.791-0.751c0-0.636,0.57-0.941,1.437-0.936V6.04
			C10.856,5.909,10.786,5.724,10.411,5.724z M7.199,7.065c0.105,0.035,0.24,0.06,0.391,0.06c0.32,0,0.521-0.145,0.521-0.671V4.332
			h0.761v2.132c0,0.961-0.46,1.296-1.201,1.296c-0.175,0-0.405-0.03-0.555-0.08L7.199,7.065z M30.625,26.273l-0.311,0.311h-2.355
			c-1.102,0-2,0.9-2,2v2.355l-0.311,0.311H3.375c-0.689,0-1.25-0.561-1.25-1.25V11h28.5V26.273z"/>
		<path d="M10.171,6.935c0,0.195,0.13,0.291,0.3,0.291c0.19,0,0.346-0.125,0.396-0.28c0.011-0.04,0.015-0.085,0.015-0.13V6.551
			C10.48,6.544,10.171,6.64,10.171,6.935z"/>
		<path d="M19.031,6.935c0,0.195,0.13,0.291,0.301,0.291c0.189,0,0.345-0.125,0.395-0.28c0.01-0.04,0.017-0.085,0.017-0.13V6.551
			C19.342,6.544,19.031,6.64,19.031,6.935z"/>
		<path d="M14.118,27.764c0.891,0,1.719-0.22,2.466-0.649c0.447-0.259,0.822-0.603,1.162-0.98c-0.1,0.003-0.198,0.021-0.296,0.021
			c-0.828,0-1.594-0.135-2.278-0.389c-0.333,0.117-0.68,0.197-1.054,0.197c-1.64,0-3.352-1.128-4.36-2.874
			c-0.699-1.211-0.98-2.557-0.793-3.791c0.177-1.159,0.752-2.073,1.62-2.575c0.469-0.271,0.995-0.408,1.565-0.408
			c1.64,0,3.352,1.128,4.36,2.875c0.699,1.211,0.98,2.557,0.793,3.791c-0.008,0.056-0.029,0.103-0.039,0.156
			c0.064,0.002,0.12,0.016,0.187,0.016c0.532,0,1.095-0.1,1.653-0.275c0.146-1.529-0.199-3.143-1.035-4.588
			c-1.323-2.292-3.646-3.773-5.918-3.773c-0.891,0-1.719,0.218-2.465,0.649c-1.352,0.78-2.239,2.151-2.499,3.862
			c-0.25,1.636,0.109,3.397,1.013,4.961C9.523,26.282,11.847,27.764,14.118,27.764z"/>
		<path d="M17.834,16.908c0.975-0.498,2.016-0.781,2.98-0.781c1.272,0,2.271,0.461,2.733,1.266c0.41,0.709,0.384,1.64-0.073,2.619
			c-0.508,1.088-1.463,2.077-2.692,2.787c-1.068,0.617-2.251,0.957-3.332,0.957c-1.272,0-2.269-0.461-2.733-1.265
			c-0.41-0.71-0.383-1.64,0.074-2.62c0.178-0.381,0.428-0.742,0.708-1.091c-0.388-0.488-0.839-0.9-1.326-1.21
			c-0.403,0.486-0.76,0.998-1.013,1.541c-0.712,1.527-0.714,3.047-0.001,4.281c0.794,1.375,2.358,2.164,4.291,2.164
			c1.411,0,2.876-0.414,4.231-1.197c1.545-0.893,2.762-2.166,3.424-3.584c0.713-1.527,0.713-3.047,0.002-4.28
			c-0.795-1.375-2.359-2.165-4.293-2.165c-1.412,0-2.875,0.414-4.23,1.198c-0.028,0.017-0.052,0.037-0.08,0.054
			C16.988,15.965,17.436,16.41,17.834,16.908z"/>
	</g>
</g>
<g>
</g>
<g>
</g>
<g>
</g>
<g>
</g>
<g>
</g>
<g>
</g>
<g>
</g>
<g>
</g>
<g>
</g>
<g>
</g>
<g>
</g>
<g>
</g>
<g>
</g>
<g>
</g>
<g>
</g>
</svg>
