<svg xmlns="http://www.w3.org/2000/svg" width="8.13" height="15.44"><path data-name="Path 1" d="M6.1 0c.41 0 .83.03 1.24.05.27.01.54.04.79.07l-.02 2.49h-.2c-.27 0-.54-.01-.82-.01-.2 0-.4.01-.61.01A1.041 1.041 0 005.3 3.7c-.02.6-.03 1.9-.03 1.97.03 0 .68.01 1.34.01.32 0 .64 0 .87-.01h.53c-.13.96-.26 1.87-.39 2.8H5.27l-.06 6.97H2.32l.06-6.99H.01l.02-2.77h2.38v-.21c.01-.56 0-1.12.02-1.68a7.581 7.581 0 01.09-1.06A3.145 3.145 0 013.79.65 3.6 3.6 0 015.87.01c.08 0 .15-.01.23-.01z" fill="#a1a1a1" fill-rule="evenodd"/></svg>