<svg xmlns="http://www.w3.org/2000/svg" width="18.03" height="11.41"><path data-name="Union 1" d="M5.36 11.39A5.653 5.653 0 01.12 6.9a5.314 5.314 0 01-.11-1.54A5.573 5.573 0 011.3 2.11 5.683 5.683 0 014.37.15a4.271 4.271 0 01.94-.14c.18-.01.36-.02.55-.02a5.311 5.311 0 012.69.74 6.276 6.276 0 011.01.74c-.57.56-1.11 1.11-1.67 1.66a3.053 3.053 0 00-1.67-.81 4.051 4.051 0 00-.48-.04 3.429 3.429 0 00-3.29 2.67 2.977 2.977 0 00-.08 1.03A3.429 3.429 0 004.7 8.95a3.365 3.365 0 001 .15c.08 0 .15-.01.23-.01a3.427 3.427 0 001.67-.53 2.65 2.65 0 001.13-1.72H5.68c0-.08.01-1.5.01-2.2l.01-.09h5.36a6.171 6.171 0 01-1.01 4.81 5.029 5.029 0 01-2.82 1.84 6.2 6.2 0 01-1.54.2c-.11 0-.22-.01-.33-.01zm10.59-3.22h-1.51v-.06l.02-1.93h-1.99v-.06l.01-1.44v-.06h1.99l.01-1.93.01-.06h1.55v.06l-.01 1.93h1.99v.06l-.01 1.44v.06h-1.99L16 8.11v.06h-.05z" fill="#a1a1a1" fill-rule="evenodd"/></svg>